<svg xmlns="http://www.w3.org/2000/svg" viewBox="0 0 24 24" width="48" height="48">
  <path fill="#000" d="M17.05 12.04c-.03-2.84 2.32-4.21 2.42-4.27c-1.32-1.93-3.38-2.2-4.11-2.23c-1.75-.18-3.41 1.03-4.3 1.03c-.89 0-2.26-1.01-3.71-.98c-1.91.03-3.67 1.11-4.65 2.82c-1.98 3.44-.51 8.52 1.42 11.31c.94 1.36 2.07 2.89 3.54 2.84c1.42-.06 1.96-.92 3.67-.92c1.71 0 2.2.92 3.7.89c1.53-.03 2.5-1.39 3.44-2.76c1.08-1.58 1.53-3.11 1.56-3.19c-.03-.01-2.99-1.15-3.02-4.54zM14.5 4.13c.78-.95 1.31-2.27 1.16-3.58c-1.13.05-2.49.75-3.29 1.69c-.72.84-1.36 2.18-1.19 3.47c1.26.1 2.54-.64 3.32-1.58z"></path>
</svg>