<svg xmlns="http://www.w3.org/2000/svg" viewBox="0 0 48 48" width="48" height="48">
  <path fill="#4285F4" d="M43.6 20.5H42V20H24v8h11.3c-1.6 4.7-6 8-11.3 8c-6.6 0-12-5.4-12-12s5.4-12 12-12c3.1 0 5.8 1.2 7.9 3.1l5.7-5.7C34 6.1 29.3 4 24 4C12.9 4 4 12.9 4 24s8.9 20 20 20s20-8.9 20-20c0-1.3-.1-2.4-.4-3.5z"></path>
  <path fill="#34A853" d="M6.3 14.7l6.6 4.8C14.7 15.1 19 12 24 12c3.1 0 5.8 1.2 7.9 3.1l5.7-5.7C34 6.1 29.3 4 24 4C16.3 4 9.7 8.3 6.3 14.7z" opacity="0"></path>
  <path fill="#34A853" d="M24 44c5.2 0 9.9-2 13.4-5.3l-6.2-5.2C29.2 35.1 26.7 36 24 36c-5.3 0-9.7-3.4-11.3-8l-6.5 5C9.6 39.6 16.2 44 24 44z"></path>
  <path fill="#FBBC05" d="M43.6 20.5H42V20H24v8h11.3c-.8 2.2-2.2 4.1-4 5.5l6.2 5.2C41.4 35.1 44 30 44 24c0-1.3-.1-2.4-.4-3.5z" opacity="0"></path>
  <path fill="#FBBC05" d="M12.7 28l-6.4 4.9C8.9 38 14.3 41.6 20.5 42.7L24 36c-5.3 0-9.7-3.4-11.3-8z" opacity="0"></path>
  <path fill="#EA4335" d="M24 12c3.1 0 5.8 1.2 7.9 3.1l5.7-5.7C34 6.1 29.3 4 24 4C16.3 4 9.7 8.3 6.3 14.7l6.6 4.8C14.7 15.1 19 12 24 12z"></path>
  <path fill="#FBBC05" d="M12.7 28c-.5-1.3-.7-2.6-.7-4s.3-2.7.7-4l-6.4-4.9C5 17.7 4 20.8 4 24s1 6.3 2.7 8.9L12.7 28z"></path>
  <path fill="#4285F4" d="M43.6 20.5H42V20H24v8h11.3c-.8 2.2-2.2 4.1-4 5.5l6.2 5.2C41.4 35.1 44 30 44 24c0-1.3-.1-2.4-.4-3.5z"></path>
</svg>